<mxfile host="app.diagrams.net" modified="2023-11-27T09:05:47.549Z" agent="Mozilla/5.0 (Windows NT 10.0; Win64; x64) AppleWebKit/537.36 (KHTML, like Gecko) Chrome/119.0.0.0 Safari/537.36 Edg/119.0.0.0" etag="hpDSmmrARutHPXVnnYDB" version="22.1.4" type="github">
  <diagram name="第 1 页" id="zCM669oExzSBVV5JQFOq">
    <mxGraphModel dx="1002" dy="543" grid="1" gridSize="10" guides="1" tooltips="1" connect="1" arrows="1" fold="1" page="1" pageScale="1" pageWidth="827" pageHeight="1169" math="0" shadow="0">
      <root>
        <mxCell id="0" />
        <mxCell id="1" parent="0" />
        <mxCell id="5_-8-uutxeO-d2ZkU-e1-1" value="" style="ellipse;whiteSpace=wrap;html=1;aspect=fixed;fillColor=#fff2cc;strokeColor=#d6b656;" parent="1" vertex="1">
          <mxGeometry x="200" y="100" width="300" height="300" as="geometry" />
        </mxCell>
        <mxCell id="5_-8-uutxeO-d2ZkU-e1-21" value="" style="ellipse;whiteSpace=wrap;html=1;aspect=fixed;fillColor=#dae8fc;strokeColor=#6c8ebf;" parent="1" vertex="1">
          <mxGeometry x="245" y="145" width="210" height="210" as="geometry" />
        </mxCell>
        <mxCell id="5_-8-uutxeO-d2ZkU-e1-2" value="" style="shape=waypoint;sketch=0;size=6;pointerEvents=1;points=[];fillColor=#dae8fc;resizable=0;rotatable=0;perimeter=centerPerimeter;snapToPoint=1;strokeColor=#6c8ebf;" parent="1" vertex="1">
          <mxGeometry x="340" y="240" width="20" height="20" as="geometry" />
        </mxCell>
        <mxCell id="5_-8-uutxeO-d2ZkU-e1-3" value="" style="shape=waypoint;sketch=0;size=6;pointerEvents=1;points=[];fillColor=none;resizable=0;rotatable=0;perimeter=centerPerimeter;snapToPoint=1;" parent="1" vertex="1">
          <mxGeometry x="360" y="200" width="20" height="20" as="geometry" />
        </mxCell>
        <mxCell id="5_-8-uutxeO-d2ZkU-e1-4" value="" style="shape=waypoint;sketch=0;size=6;pointerEvents=1;points=[];fillColor=none;resizable=0;rotatable=0;perimeter=centerPerimeter;snapToPoint=1;" parent="1" vertex="1">
          <mxGeometry x="404" y="250" width="20" height="20" as="geometry" />
        </mxCell>
        <mxCell id="5_-8-uutxeO-d2ZkU-e1-5" value="" style="shape=waypoint;sketch=0;size=6;pointerEvents=1;points=[];fillColor=none;resizable=0;rotatable=0;perimeter=centerPerimeter;snapToPoint=1;" parent="1" vertex="1">
          <mxGeometry x="394" y="210" width="20" height="20" as="geometry" />
        </mxCell>
        <mxCell id="5_-8-uutxeO-d2ZkU-e1-6" value="" style="shape=waypoint;sketch=0;size=6;pointerEvents=1;points=[];fillColor=none;resizable=0;rotatable=0;perimeter=centerPerimeter;snapToPoint=1;" parent="1" vertex="1">
          <mxGeometry x="260" y="270" width="20" height="20" as="geometry" />
        </mxCell>
        <mxCell id="5_-8-uutxeO-d2ZkU-e1-9" style="rounded=0;orthogonalLoop=1;jettySize=auto;html=1;" parent="1" source="5_-8-uutxeO-d2ZkU-e1-7" target="5_-8-uutxeO-d2ZkU-e1-2" edge="1">
          <mxGeometry relative="1" as="geometry" />
        </mxCell>
        <mxCell id="5_-8-uutxeO-d2ZkU-e1-12" value="D" style="edgeLabel;html=1;align=center;verticalAlign=middle;resizable=0;points=[];" parent="5_-8-uutxeO-d2ZkU-e1-9" vertex="1" connectable="0">
          <mxGeometry x="-0.1214" y="2" relative="1" as="geometry">
            <mxPoint as="offset" />
          </mxGeometry>
        </mxCell>
        <mxCell id="5_-8-uutxeO-d2ZkU-e1-15" value="d1" style="edgeLabel;html=1;align=center;verticalAlign=middle;resizable=0;points=[];" parent="5_-8-uutxeO-d2ZkU-e1-9" vertex="1" connectable="0">
          <mxGeometry x="-0.1283" y="3" relative="1" as="geometry">
            <mxPoint as="offset" />
          </mxGeometry>
        </mxCell>
        <mxCell id="5_-8-uutxeO-d2ZkU-e1-7" value="" style="shape=waypoint;sketch=0;size=6;pointerEvents=1;points=[];fillColor=#e1d5e7;resizable=0;rotatable=0;perimeter=centerPerimeter;snapToPoint=1;strokeColor=#9673a6;" parent="1" vertex="1">
          <mxGeometry x="230" y="200" width="20" height="20" as="geometry" />
        </mxCell>
        <mxCell id="5_-8-uutxeO-d2ZkU-e1-11" style="rounded=0;orthogonalLoop=1;jettySize=auto;html=1;" parent="1" source="5_-8-uutxeO-d2ZkU-e1-8" edge="1">
          <mxGeometry relative="1" as="geometry">
            <mxPoint x="350" y="250" as="targetPoint" />
          </mxGeometry>
        </mxCell>
        <mxCell id="5_-8-uutxeO-d2ZkU-e1-17" value="d3" style="edgeLabel;html=1;align=center;verticalAlign=middle;resizable=0;points=[];" parent="5_-8-uutxeO-d2ZkU-e1-11" vertex="1" connectable="0">
          <mxGeometry x="-0.2785" y="-2" relative="1" as="geometry">
            <mxPoint as="offset" />
          </mxGeometry>
        </mxCell>
        <mxCell id="5_-8-uutxeO-d2ZkU-e1-8" value="" style="shape=waypoint;sketch=0;size=6;pointerEvents=1;points=[];fillColor=none;resizable=0;rotatable=0;perimeter=centerPerimeter;snapToPoint=1;" parent="1" vertex="1">
          <mxGeometry x="330" y="290" width="20" height="20" as="geometry" />
        </mxCell>
        <mxCell id="5_-8-uutxeO-d2ZkU-e1-10" style="rounded=0;orthogonalLoop=1;jettySize=auto;html=1;entryX=0.06;entryY=0.78;entryDx=0;entryDy=0;entryPerimeter=0;" parent="1" source="5_-8-uutxeO-d2ZkU-e1-6" target="5_-8-uutxeO-d2ZkU-e1-2" edge="1">
          <mxGeometry relative="1" as="geometry" />
        </mxCell>
        <mxCell id="5_-8-uutxeO-d2ZkU-e1-16" value="d2" style="edgeLabel;html=1;align=center;verticalAlign=middle;resizable=0;points=[];" parent="5_-8-uutxeO-d2ZkU-e1-10" vertex="1" connectable="0">
          <mxGeometry x="-0.0762" y="-2" relative="1" as="geometry">
            <mxPoint x="1" as="offset" />
          </mxGeometry>
        </mxCell>
        <mxCell id="5_-8-uutxeO-d2ZkU-e1-22" value="" style="shape=waypoint;sketch=0;size=6;pointerEvents=1;points=[];fillColor=none;resizable=0;rotatable=0;perimeter=centerPerimeter;snapToPoint=1;" parent="1" vertex="1">
          <mxGeometry x="280" y="355" width="20" height="20" as="geometry" />
        </mxCell>
        <mxCell id="5_-8-uutxeO-d2ZkU-e1-23" style="rounded=0;orthogonalLoop=1;jettySize=auto;html=1;entryX=0.1;entryY=0.86;entryDx=0;entryDy=0;entryPerimeter=0;" parent="1" source="5_-8-uutxeO-d2ZkU-e1-22" target="5_-8-uutxeO-d2ZkU-e1-2" edge="1">
          <mxGeometry relative="1" as="geometry" />
        </mxCell>
        <mxCell id="5_-8-uutxeO-d2ZkU-e1-24" value="d4" style="edgeLabel;html=1;align=center;verticalAlign=middle;resizable=0;points=[];" parent="5_-8-uutxeO-d2ZkU-e1-23" vertex="1" connectable="0">
          <mxGeometry x="-0.1926" y="-2" relative="1" as="geometry">
            <mxPoint as="offset" />
          </mxGeometry>
        </mxCell>
        <mxCell id="5_-8-uutxeO-d2ZkU-e1-26" value="d&amp;gt;threshold时，从外层依次选取到内层的距离最大值的样本点，直到满足内存需求为止" style="text;strokeColor=none;align=center;fillColor=none;html=1;verticalAlign=middle;whiteSpace=wrap;rounded=0;" parent="1" vertex="1">
          <mxGeometry x="230" y="420" width="250" height="60" as="geometry" />
        </mxCell>
      </root>
    </mxGraphModel>
  </diagram>
</mxfile>
